<?xml version="1.0" encoding="UTF-8"?>
<svg version="1.1" xmlns="http://www.w3.org/2000/svg" width="512" height="512">
<path d="M0 0 C0.74314453 0.00491455 1.48628906 0.0098291 2.25195312 0.01489258 C15.38648941 0.29401579 25.76907379 5.82834603 35.26171875 14.73046875 C43.95883753 24.2326101 47.62151517 35.01841255 47.6875 47.6875 C47.76282997 51.22106403 47.76282997 51.22106403 48.625 54.3125 C50.91983004 56.27884542 53.03446 57.09137086 55.859375 58.140625 C65.09982788 62.05607114 70.03194339 71.44534957 73.625 80.3125 C74.4757223 83.18270194 74.74731766 85.72449437 74.73852539 88.71386719 C74.73844986 89.5744574 74.73837433 90.43504761 74.73829651 91.32171631 C74.73313522 92.24164368 74.72797394 93.16157104 74.72265625 94.109375 C74.72053383 95.53253021 74.72053383 95.53253021 74.71836853 96.98443604 C74.71277742 100.01048962 74.70022652 103.03646883 74.6875 106.0625 C74.68248385 108.11588435 74.67792115 110.16926986 74.67382812 112.22265625 C74.66281089 117.25263276 74.64555233 122.28255378 74.625 127.3125 C76.605 127.3125 78.585 127.3125 80.625 127.3125 C80.60405273 126.10303711 80.58310547 124.89357422 80.56152344 123.64746094 C80.4884516 119.10754503 80.44295883 114.56767976 80.40527344 110.02734375 C80.38530961 108.07217634 80.35812864 106.11706745 80.32324219 104.16210938 C80.07173723 89.69317691 80.15313041 76.48571882 90.625 65.3125 C95.7090541 60.17470325 101.181261 56.54928556 107.625 53.3125 C107.59019531 52.65765625 107.55539063 52.0028125 107.51953125 51.328125 C107.1257457 38.0519265 110.73976955 25.92777388 119.25 15.625 C128.34817077 5.9816205 140.04356126 0.36758257 153.27490234 -0.15820312 C167.43518169 -0.33472853 179.16443559 3.81969513 189.87890625 13.30859375 C197.18784268 20.86717128 202.75788331 31.7041575 203.625 42.3125 C203.51027344 43.20839844 203.39554687 44.10429688 203.27734375 45.02734375 C202.90606367 48.13841478 202.74931939 50.29027924 203.625 53.3125 C206.61019034 55.7874779 209.81230322 57.53881694 213.21484375 59.3515625 C222.24174845 64.5422912 227.43155876 73.40408488 230.19418335 83.21801758 C231.00887311 87.17875906 230.86741926 91.1560115 230.8203125 95.18359375 C230.8174826 96.105923 230.81465271 97.02825226 230.81173706 97.97853088 C230.80060974 100.90249013 230.77551912 103.82613451 230.75 106.75 C230.73996057 108.74153201 230.7308364 110.73306886 230.72265625 112.72460938 C230.70069483 117.5873595 230.66621673 122.4498765 230.625 127.3125 C232.275 127.3125 233.925 127.3125 235.625 127.3125 C235.61452637 126.31508789 235.60405273 125.31767578 235.59326172 124.29003906 C235.55662283 120.53275244 235.5339426 116.77548105 235.51513672 113.01806641 C235.50517784 111.40247936 235.49160582 109.78690985 235.47412109 108.17138672 C235.29870001 91.52702113 235.84578522 76.23454996 247.875 63.375 C251.12776378 60.25500209 253.92375599 58.68546206 258.125 57.125 C260.70396699 56.11383465 260.70396699 56.11383465 262.625 54.3125 C263.46193273 50.83141168 263.50049343 47.65526188 263.51171875 44.078125 C263.85393201 32.70248434 269.20539662 21.82762553 276.875 13.5625 C287.76265164 3.37185035 300.61264632 -0.22089192 315.15625 0.0390625 C325.86352387 0.49963944 334.48615539 4.51384249 342.625 11.3125 C343.34558594 11.90933594 344.06617188 12.50617187 344.80859375 13.12109375 C352.1637169 19.80883332 356.41344892 28.69121936 358.625 38.3125 C358.71463888 40.33688637 358.68714894 42.33790566 358.64672852 44.36352539 C358.61007847 47.86175133 358.87908269 50.87237389 359.625 54.3125 C361.94897255 56.51868836 363.91711421 57.28011426 366.92578125 58.3359375 C374.09713608 60.93049424 378.4599837 67.00192886 382.30078125 73.296875 C387.31954121 84.72602748 386.98429433 95.75073978 386.8125 108 C386.79742481 109.87694238 386.78374142 111.75389648 386.77148438 113.63085938 C386.73870587 118.1916998 386.68708054 122.75196815 386.625 127.3125 C387.24622742 127.30479584 387.86745483 127.29709167 388.50750732 127.28915405 C389.72727264 127.28016586 389.72727264 127.28016586 390.97167969 127.27099609 C392.18195831 127.25943985 392.18195831 127.25943985 393.41668701 127.24765015 C398.08925805 127.384866 401.82322202 129.60218283 405.1640625 132.7734375 C411.18031927 139.70444676 410.99760044 145.85131702 410.99560547 154.63916016 C410.99998647 156.80580817 411.03635172 158.97042981 411.07421875 161.13671875 C411.08008615 162.51822223 411.08405606 163.89973534 411.0859375 165.28125 C411.09415527 166.53357422 411.10237305 167.78589844 411.11083984 169.07617188 C410.625 172.3125 410.625 172.3125 408.81494141 174.72070312 C405.61802543 177.04443692 403.47582809 176.8626183 399.625 176.3125 C396.95608636 174.25132334 395.77324347 173.06033408 395.11083984 169.71875 C395.10262207 168.7596875 395.0944043 167.800625 395.0859375 166.8125 C395.06273437 165.760625 395.03953125 164.70875 395.015625 163.625 C395.01046875 162.531875 395.0053125 161.43875 395 160.3125 C394.97444834 158.14571952 394.94091818 155.9790147 394.8984375 153.8125 C394.89247559 152.8534375 394.88651367 151.894375 394.88037109 150.90625 C394.61256733 148.18622399 394.17769328 146.5569236 392.625 144.3125 C389.56591587 143.49665432 389.56591587 143.49665432 386.625 143.3125 C386.315625 145.045 386.315625 145.045 386 146.8125 C383.64512662 155.98852354 375.70869057 162.60159413 369.21240234 169.09570312 C367.74889743 170.56360589 366.30219247 172.04682824 364.85546875 173.53125 C357.7750331 180.69650478 351.0023935 186.34074718 340.5 186.625 C332.84808933 186.52405131 327.3473879 184.19924734 321.75 179 C315.6876037 172.30463889 315.0821105 166.58346022 315.26171875 157.70703125 C315.8496313 152.21352585 317.6712959 148.2662041 321.625 144.3125 C315.025 144.3125 308.425 144.3125 301.625 144.3125 C302.8315625 146.1996875 302.8315625 146.1996875 304.0625 148.125 C307.88726763 155.07714173 308.50752763 161.88721131 306.5625 169.5625 C303.82875059 177.35554131 298.93509675 181.79282379 291.625 185.3125 C288.57949511 186.24377009 285.67965238 186.56698839 282.5 186.6875 C281.63117188 186.73648438 280.76234375 186.78546875 279.8671875 186.8359375 C268.92160718 185.06881971 261.90537167 177.31615188 254.49975586 169.72924805 C252.68095857 167.86830699 250.84144249 166.02990495 248.99804688 164.19335938 C247.82164277 163.00646962 246.64646786 161.81835999 245.47265625 160.62890625 C244.92891861 160.08496719 244.38518097 159.54102814 243.82496643 158.98060608 C239.99071075 155.02626508 236.80987487 151.14724795 236.4375 145.4375 C236.5303125 144.385625 236.5303125 144.385625 236.625 143.3125 C234.645 143.3125 232.665 143.3125 230.625 143.3125 C230.480625 144.59125 230.33625 145.87 230.1875 147.1875 C228.80427896 153.08438968 225.56772636 156.40114497 221.34521484 160.59375 C219.22173184 162.71542476 217.13852646 164.87440785 215.05078125 167.03125 C213.36870098 168.75148122 211.68508798 170.47021494 210 172.1875 C209.18861572 173.02071777 208.37723145 173.85393555 207.54125977 174.71240234 C200.57991933 181.70854593 194.61602892 186.30409366 184.5 186.6875 C177.50156213 186.60340662 172.00885534 184.31799177 166.7734375 179.66796875 C161.13419945 173.51480999 159.09299107 167.31797613 159.33203125 159.03125 C159.96414479 153.16523631 162.06660542 149.0570261 165.625 144.3125 C159.025 144.3125 152.425 144.3125 145.625 144.3125 C147.275 146.9525 148.925 149.5925 150.625 152.3125 C152.75891152 160.84814609 152.21023142 168.65760384 147.625 176.3125 C142.93679677 181.72274754 137.3328535 185.73128352 130.09375 186.625 C121.67502039 187.00336987 114.78921243 185.2204428 108.35522461 179.58178711 C105.33065064 176.7818263 102.42808644 173.86872485 99.5546875 170.91455078 C97.75036208 169.06287158 95.92067453 167.23946743 94.0859375 165.41796875 C92.9124686 164.2333476 91.7405391 163.04719915 90.5703125 161.859375 C90.03173615 161.32262146 89.49315979 160.78586792 88.93826294 160.23284912 C84.19806216 155.31475337 80.625 150.29814832 80.625 143.3125 C78.645 143.3125 76.665 143.3125 74.625 143.3125 C74.5425 144.34375 74.46 145.375 74.375 146.4375 C73.09145926 153.06912716 70.25126744 155.99142878 64.91210938 159.80566406 C56.48536311 166.15982809 49.73916516 172.32625153 48.20109558 183.04430389 C47.15476197 193.73490298 47.59278195 204.51742309 48.02130127 215.23156738 C48.26208879 221.80496757 48.34001818 228.38275093 48.43762207 234.95953369 C48.48980751 238.44792613 48.58532762 241.93070285 48.71765137 245.41693115 C48.76309049 247.00939511 48.80838621 248.60186317 48.85351562 250.19433594 C48.88996689 250.90091339 48.92641815 251.60749084 48.963974 252.33547974 C49.08579414 257.79696685 47.58501601 261.82593517 44.625 266.3125 C39.83101832 270.76405442 37.1549564 271.43951794 30.68432617 271.47363281 C29.97030136 271.47859772 29.25627655 271.48356262 28.52061462 271.48867798 C26.15305626 271.50330978 23.78556494 271.51010378 21.41796875 271.515625 C19.77370705 271.52137627 18.12944537 271.527134 16.48518372 271.53289795 C13.03430875 271.54341128 9.5834571 271.54925155 6.13256836 271.55273438 C1.71398983 271.55821535 -2.70427995 271.58223331 -7.12276173 271.61070633 C-10.52085769 271.62934633 -13.91887955 271.63453906 -17.31702232 271.63607025 C-18.94569268 271.63909498 -20.57436178 271.6471175 -22.20298195 271.66025543 C-24.48427292 271.67734242 -26.76481328 271.6754294 -29.04614258 271.66894531 C-30.34360916 271.67259094 -31.64107574 271.67623657 -32.9778595 271.67999268 C-37.27574235 271.21506034 -39.84773266 269.79348651 -42.921875 266.8125 C-47.04821729 261.66796935 -47.48929069 258.26492408 -47.23120117 251.88549805 C-47.17844408 250.3194311 -47.12692366 248.75332215 -47.07646179 247.18717957 C-47.04908117 246.35547934 -47.02170055 245.52377911 -46.99349022 244.66687584 C-46.8367725 239.28674599 -46.77690266 233.90456764 -46.70841503 228.52270794 C-46.64329311 223.81612848 -46.539237 219.11738297 -46.34301758 214.41430664 C-44.64801889 190.30872829 -44.64801889 190.30872829 -54.69423771 169.45422459 C-58.77698606 165.28883866 -63.34703721 161.75353088 -68.01455688 158.26748657 C-72.86258599 154.25221006 -74.76499541 149.56504706 -75.375 143.3125 C-79.44915064 143.48423709 -79.44915064 143.48423709 -83.375 144.3125 C-86.11665489 148.04838845 -85.6533272 152.38952594 -85.62896729 156.81494141 C-85.63208727 157.68124994 -85.63520725 158.54755848 -85.63842177 159.44011879 C-85.64641048 162.34816887 -85.6400747 165.2560108 -85.63378906 168.1640625 C-85.63649853 170.24680707 -85.64005922 172.32955069 -85.64440918 174.41229248 C-85.65354063 180.0733245 -85.64998579 185.73428376 -85.64365101 191.39531708 C-85.63859495 197.31383971 -85.64328137 203.23235603 -85.64642334 209.15087891 C-85.65006413 219.09083171 -85.64526091 229.03075482 -85.63574219 238.97070312 C-85.62485743 250.47007693 -85.62838293 261.96937982 -85.639395 273.46875191 C-85.64846464 283.33378774 -85.64975473 293.19880221 -85.64451766 303.06384087 C-85.64139619 308.9593408 -85.64099349 314.85480737 -85.64759064 320.75030518 C-85.65335877 326.29228289 -85.64937693 331.83416898 -85.63780212 337.37613678 C-85.63515269 339.41273089 -85.63592544 341.44933269 -85.64032745 343.48592377 C-85.64577312 346.26074025 -85.63896063 349.03526107 -85.62896729 351.81005859 C-85.63342873 352.62055979 -85.63789017 353.43106098 -85.64248681 354.26612282 C-85.64446836 359.61660701 -85.64446836 359.61660701 -83.375 364.3125 C-81.20291412 365.22410093 -81.20291412 365.22410093 -78.75 365.5625 C-77.93273437 365.71203125 -77.11546875 365.8615625 -76.2734375 366.015625 C-75.33371094 366.16257812 -75.33371094 366.16257812 -74.375 366.3125 C-74.33375 365.6525 -74.2925 364.9925 -74.25 364.3125 C-71.80032931 355.91362906 -63.94370967 349.53831378 -57.9074707 343.52929688 C-56.43478898 342.05979483 -54.97600888 340.57738096 -53.51757812 339.09375 C-46.12000944 331.64487578 -40.01334083 326.29681237 -29.1875 326 C-21.56647036 326.10147842 -16.07267329 328.44870933 -10.5 333.625 C-4.67204314 340.04792229 -3.83654798 345.55082345 -4.00390625 354.06640625 C-4.54357359 358.78707529 -6.11931887 362.15358791 -8.375 366.3125 C-3.095 365.9825 2.185 365.6525 7.625 365.3125 C6.635 363.085 6.635 363.085 5.625 360.8125 C2.77023688 353.58923815 2.8829286 347.81028696 5.5859375 340.484375 C8.66014222 334.0585937 13.31824035 330.34908798 19.625 327.3125 C22.67050489 326.38122991 25.57034762 326.05801161 28.75 325.9375 C29.61882812 325.88851563 30.48765625 325.83953125 31.3828125 325.7890625 C42.30042378 327.5516648 49.34774845 335.28228126 56.75024414 342.84082031 C58.56747776 344.69257231 60.40775746 346.51888963 62.25195312 348.34375 C63.42852387 349.52721543 64.60370441 350.71206494 65.77734375 351.8984375 C66.32108139 352.43721527 66.86481903 352.97599304 67.42503357 353.53109741 C70.07831941 356.26708724 71.88635125 358.57604473 73.26000977 362.15478516 C73.71045654 363.19683105 74.16090332 364.23887695 74.625 365.3125 C78.21363524 366.3740942 78.21363524 366.3740942 81.625 366.3125 C81.7087085 365.41998535 81.79241699 364.5274707 81.87866211 363.60791016 C82.73989724 359.80517811 83.89090966 358.3739042 86.56640625 355.5859375 C87.38125488 354.72581055 88.19610352 353.86568359 89.03564453 352.97949219 C89.89013184 352.09938477 90.74461914 351.21927734 91.625 350.3125 C92.43437012 349.45043945 93.24374023 348.58837891 94.07763672 347.70019531 C96.54422238 345.08365776 99.04821956 342.50817188 101.5625 339.9375 C102.39201172 339.06222656 103.22152344 338.18695313 104.07617188 337.28515625 C110.28799461 330.96232192 115.90692079 327.38095552 124.65625 325.74609375 C132.43028613 325.75839444 138.55029985 327.7707775 144.4765625 332.921875 C150.14777994 339.01214792 152.16777495 345.59932138 151.92578125 353.83984375 C151.45675558 357.69560022 150.44840165 362.48909835 147.625 365.3125 C152.905 365.3125 158.185 365.3125 163.625 365.3125 C162.635 363.6625 161.645 362.0125 160.625 360.3125 C158.3917775 353.61283251 158.74503033 346.37695885 161.6875 340 C165.58471722 333.08381169 170.97223052 328.60833084 178.625 326.3125 C186.361013 325.34698836 192.87227194 326.33178301 199.625 330.3125 C203.99060317 333.79365106 207.86922987 337.81737326 211.75024414 341.8203125 C213.56705847 343.69219664 215.40705151 345.53864542 217.25195312 347.3828125 C218.42851214 348.5741114 219.60369227 349.76677404 220.77734375 350.9609375 C221.32108139 351.50801361 221.86481903 352.05508972 222.42503357 352.6187439 C226.27248537 356.61113722 229.625 360.50968031 229.625 366.3125 C232.99846335 366.45206727 232.99846335 366.45206727 236.625 365.3125 C238.4469596 362.0714185 238.4469596 362.0714185 239.39373779 359.55821228 C240.90306203 356.8053397 242.67925405 355.72928223 245.20019531 353.88110352 C250.74503381 348.43117278 250.61545532 343.15298893 250.68625259 335.78937626 C250.66830426 332.76352991 250.60721431 329.74011488 250.546875 326.71484375 C250.53982318 324.59453854 250.53747795 322.47421295 250.53961182 320.35389709 C250.53591948 314.78817188 250.48296563 309.22414832 250.4151001 303.65887451 C250.31029588 294.74955868 250.26098979 285.84043194 250.24887848 276.9305439 C250.23460751 273.82789399 250.1872958 270.72698577 250.13690186 267.6247406 C250.12618749 265.71329377 250.11662558 263.80184001 250.10839844 261.89038086 C250.07425087 260.60822693 250.07425087 260.60822693 250.03941345 259.3001709 C250.0566931 253.19633654 251.52132742 248.91328349 255.625 244.3125 C260.04640922 241.25035043 263.69650196 240.93079471 269.00390625 240.90844727 C269.71690887 240.90158401 270.4299115 240.89472076 271.16452026 240.88764954 C273.50571989 240.86944773 275.84624526 240.8732088 278.1875 240.87890625 C279.82365129 240.8743417 281.45980066 240.86903531 283.09594727 240.86302185 C286.51879688 240.85410413 289.94141299 240.85649905 293.36425781 240.86645508 C297.74243541 240.87795143 302.11980725 240.85771684 306.49787903 240.82853794 C309.87460414 240.81016102 313.25113659 240.81047119 316.62789917 240.81617546 C318.24178194 240.81632845 319.85567795 240.81030265 321.46951294 240.79788399 C323.72888268 240.78294424 325.98676926 240.79367033 328.24609375 240.81079102 C330.17086548 240.81104027 330.17086548 240.81104027 332.13452148 240.81129456 C337.59384525 241.5952108 340.62211414 244.01145889 343.9375 248.3125 C346.6452711 253.12631529 346.74816827 256.86025051 346.73852539 262.37597656 C346.73867142 263.07881775 346.73881744 263.78165894 346.7389679 264.50579834 C346.73827299 266.82160563 346.73050038 269.13733181 346.72265625 271.453125 C346.72079057 273.06166541 346.71936737 274.67020638 346.71836853 276.27874756 C346.71455516 280.50705542 346.70473495 284.73532879 346.69366455 288.96362305 C346.68342506 293.28043145 346.67886547 297.59724544 346.67382812 301.9140625 C346.66311162 310.38022414 346.64604937 318.84635778 346.625 327.3125 C347.40716385 327.45147202 348.1893277 327.59044403 348.99519348 327.73362732 C357.73282151 329.6569529 365.36129706 339.68242191 371.4375 345.75 C372.36498047 346.65298828 373.29246094 347.55597656 374.24804688 348.48632812 C379.23358255 353.45029695 383.03654448 357.73381792 385.625 364.3125 C385.625 364.9725 385.625 365.6325 385.625 366.3125 C386.94222179 365.88942877 388.25372664 365.44852514 389.5625 365 C390.29339844 364.75636719 391.02429688 364.51273437 391.77734375 364.26171875 C393.98432024 363.40009559 393.98432024 363.40009559 394.625 360.3125 C394.71821055 358.16544458 394.74964846 356.01554809 394.74957275 353.86647034 C394.7509829 353.2092774 394.75239305 352.55208445 394.75384593 351.87497658 C394.75750141 349.66866414 394.75416136 347.46241588 394.75097656 345.25610352 C394.75237122 343.67596384 394.75427046 342.09582455 394.75663757 340.51568604 C394.76113595 337.11079673 394.76299069 333.70591949 394.76309967 330.3010273 C394.76423903 324.9186662 394.77706954 319.53637385 394.79266357 314.15403748 C394.79523643 313.24608651 394.79780928 312.33813555 394.8004601 311.40267092 C394.80572663 309.54601855 394.81101211 307.68936623 394.81631613 305.83271396 C394.85144771 293.30049325 394.87797525 280.76835802 394.87548828 268.23608398 C394.87390123 259.7843358 394.88989798 251.33282182 394.92619491 242.88114876 C394.94468005 238.40740147 394.95397558 233.93404536 394.94171906 229.46026802 C394.93030547 225.2534748 394.94193094 221.04738276 394.97135353 216.84068298 C394.97800882 215.29593106 394.97610211 213.75111524 394.96505547 212.20638847 C394.95123138 210.09858655 394.96801644 207.99316775 394.99249268 205.88551331 C394.99469252 204.1159847 394.99469252 204.1159847 394.9969368 202.31070805 C395.625 199.3125 395.625 199.3125 397.93796921 196.89778042 C400.625 195.3125 400.625 195.3125 404.25 195.375 C408.72275086 196.61743079 408.72275086 196.61743079 410.625 199.3125 C411.00252342 202.28860188 411.00252342 202.28860188 411.00595093 206.01081848 C411.01297089 207.0373685 411.01297089 207.0373685 411.02013266 208.08465689 C411.03212082 210.38321249 411.02261082 212.68117606 411.01318359 214.97973633 C411.01724773 216.62559864 411.02258872 218.27145823 411.02911377 219.91731262 C411.04281528 224.39266949 411.03747623 228.86781936 411.02797651 233.34317994 C411.02039073 238.02490953 411.02742287 242.70662117 411.03213501 247.38835144 C411.03759734 255.25445746 411.03039014 263.12047906 411.01611328 270.98657227 C410.99980285 280.07802035 411.00506165 289.16926644 411.0215925 298.26070958 C411.03521408 306.06463848 411.03712322 313.86850662 411.02927649 321.67244357 C411.02460148 326.33396284 411.02397005 330.99538725 411.03388596 335.65690041 C411.0425625 340.04246004 411.03652114 344.42775993 411.01920319 348.81329155 C411.01524128 350.42171421 411.01636733 352.03015879 411.02299118 353.63857269 C411.0312092 355.83708559 411.02088277 358.03477023 411.00595093 360.23323059 C411.00481985 361.46269315 411.00368877 362.6921557 411.00252342 363.9588747 C410.35762909 369.68761582 407.98244001 373.46904181 403.625 377.125 C402.944375 377.70894531 402.26375 378.29289062 401.5625 378.89453125 C398.23259587 381.3315377 395.42947958 381.42684389 391.4375 381.375 C390.53644531 381.36597656 389.63539063 381.35695313 388.70703125 381.34765625 C387.67642578 381.33025391 387.67642578 381.33025391 386.625 381.3125 C386.64594727 382.57731201 386.66689453 383.84212402 386.68847656 385.14526367 C386.76158318 389.89579681 386.80705362 394.64628159 386.84472656 399.3972168 C386.8646826 401.44254962 386.89185738 403.48782658 386.92675781 405.53295898 C387.20107842 422.0365709 386.71336269 436.58428344 374.77734375 449.27734375 C370.22348192 453.55960348 365.46007152 456.13785529 359.625 458.3125 C359.59921875 459.32828125 359.5734375 460.3440625 359.546875 461.390625 C358.95889032 477.51399089 354.7317133 490.11087272 342.81640625 501.4609375 C331.42301302 511.08744087 319.04371817 513.28558621 304.55029297 512.48095703 C292.23339631 511.40326762 281.87446583 504.0960028 273.625 495.3125 C266.6890203 486.38632484 263.53516877 476.01961328 263.5 464.8125 C263.45067358 461.33794133 263.45067358 461.33794133 262.625 458.3125 C260.33110461 456.35217904 258.21142131 455.53209934 255.390625 454.484375 C247.30012935 451.05619888 242.63516107 443.33256161 238.81640625 435.79296875 C234.84089301 424.1792563 235.38319716 412.16812225 235.5 400.0625 C235.51005345 398.23828618 235.5191751 396.41406698 235.52734375 394.58984375 C235.54916172 390.16392721 235.58356016 385.73827453 235.625 381.3125 C233.975 381.3125 232.325 381.3125 230.625 381.3125 C230.63388245 381.86214417 230.64276489 382.41178833 230.6519165 382.97808838 C230.74114591 388.7541655 230.80104389 394.53004352 230.84472656 400.30664062 C230.86470984 402.45581021 230.89190594 404.60492636 230.92675781 406.75390625 C231.18117759 422.85718141 231.2751845 435.94803358 219.625 448.3125 C214.90365361 453.0883654 209.57734556 456.26209162 203.625 459.3125 C203.65980469 459.96734375 203.69460938 460.6221875 203.73046875 461.296875 C204.15867426 475.73351795 199.59943175 488.82780111 189.65625 499.46875 C178.47436036 509.61846521 165.75424963 513.27910617 150.96484375 512.69140625 C138.69524211 511.84072098 127.63932064 505.89205146 119.25 497 C112.72489408 489.10048527 106.90432263 477.91513877 107.90234375 467.38671875 C108.01707031 466.45472656 108.13179687 465.52273438 108.25 464.5625 C108.49822025 461.84067659 108.49822025 461.84067659 107.625 459.3125 C104.62152453 456.78513101 101.41334251 454.96268565 97.96484375 453.1328125 C89.02469819 448.26017176 84.87427632 440.70465855 81.57202148 431.32006836 C80.20815332 426.44454184 80.3761947 421.59339846 80.4296875 416.56640625 C80.4325174 415.55529282 80.43534729 414.54417938 80.43826294 413.50242615 C80.44940111 410.29316048 80.47449403 407.08418042 80.5 403.875 C80.51003802 401.69075926 80.51916243 399.50651411 80.52734375 397.32226562 C80.54931957 391.98558068 80.58273344 386.64906076 80.625 381.3125 C78.645 381.3125 76.665 381.3125 74.625 381.3125 C74.63388245 381.87689285 74.64276489 382.44128571 74.6519165 383.02278137 C74.7410276 388.94468973 74.80099612 394.86640488 74.84472656 400.78881836 C74.86473086 402.99332426 74.89194322 405.19777786 74.92675781 407.40209961 C74.97577058 410.58720883 74.99808127 413.77161116 75.015625 416.95703125 C75.03627014 417.92832474 75.05691528 418.89961823 75.07818604 419.90034485 C75.08194982 431.61242463 70.91208791 440.94714959 62.7421875 449.21875 C59.3324915 452.37439022 56.59966898 454.39901503 52.1875 455.875 C50.10863512 456.68085853 50.10863512 456.68085853 48.625 458.3125 C47.9352166 461.74752875 47.87006551 465.01426921 47.8046875 468.515625 C47.19861932 481.3221091 40.97863455 492.43067057 31.875 501.1875 C23.14268047 508.61728176 12.44640848 512.55184425 1 512.75 C-0.27101563 512.78996094 -1.54203125 512.82992187 -2.8515625 512.87109375 C-7.25870321 512.17240071 -8.71519158 510.83343414 -11.375 507.3125 C-11.375 503.65506132 -11.18808469 501.37304525 -8.9375 498.4375 C-5.85595879 496.21879033 -3.62630173 496.16919531 0.125 496 C9.54110157 495.25573329 17.10675183 492.26289722 23.625 485.3125 C25.7636077 482.92262067 25.7636077 482.92262067 26.625 480.3125 C24.84152513 474.22886907 20.73971745 470.79486082 15.625 467.3125 C6.4680965 463.06314251 -1.94643945 462.03218041 -11.48046875 465.4140625 C-18.75009872 468.64701595 -23.14279041 472.60653409 -27.375 479.3125 C-27.05144531 479.9003125 -26.72789063 480.488125 -26.39453125 481.09375 C-24.92268051 484.29685813 -25.06418595 486.83138268 -25.375 490.3125 C-26.4375 492.6875 -26.4375 492.6875 -28.375 494.3125 C-31.6875 495.375 -31.6875 495.375 -35.375 495.3125 C-41.67609493 491.78388684 -44.23095166 486.03591197 -46.375 479.3125 C-47.74391301 472.34026432 -48.49489122 465.42967868 -48.375 458.3125 C-49.31859375 457.89291016 -49.31859375 457.89291016 -50.28125 457.46484375 C-61.32141376 452.29392368 -68.46223233 445.68951068 -73.2019043 434.33081055 C-76.67100063 424.17270009 -75.69679506 413.20728181 -75.5625 402.625 C-75.54742854 400.55534826 -75.53374449 398.48568593 -75.52148438 396.41601562 C-75.48866789 391.38124574 -75.43702071 386.34699137 -75.375 381.3125 C-76.20281982 381.32410156 -77.03063965 381.33570313 -77.88354492 381.34765625 C-79.50933472 381.36119141 -79.50933472 381.36119141 -81.16796875 381.375 C-82.24328857 381.38660156 -83.3186084 381.39820313 -84.42651367 381.41015625 C-89.26440761 381.24992129 -91.86543582 379.82206418 -95.25 376.4375 C-100.70568859 370.45384155 -101.52388573 366.47195692 -101.52217102 358.41900635 C-101.52584771 357.4984992 -101.5295244 356.57799205 -101.5333125 355.62959075 C-101.5443629 352.53202627 -101.54819547 349.43449532 -101.55200195 346.33691406 C-101.55826554 344.12125542 -101.56491224 341.90559784 -101.57191467 339.68994141 C-101.58933315 333.66091936 -101.59987859 327.63190525 -101.6081202 321.60286427 C-101.61326819 317.83767623 -101.61934399 314.07249067 -101.62563133 310.30730438 C-101.64250125 299.88106233 -101.65713641 289.45482186 -101.66438007 279.02856827 C-101.66628994 276.32340748 -101.66821027 273.6182467 -101.67016602 270.91308594 C-101.67064976 270.24073968 -101.6711335 269.56839342 -101.6716319 268.87567303 C-101.67993197 257.98444303 -101.70526903 247.09332287 -101.73774669 236.20214084 C-101.77082502 225.01828367 -101.78849678 213.83446625 -101.79202431 202.65055633 C-101.79437724 196.37202863 -101.80336956 190.09367458 -101.82848549 183.81519318 C-101.8517313 177.90874389 -101.85601334 172.00258299 -101.84572411 166.09609985 C-101.8452278 163.92852572 -101.85157597 161.76093755 -101.86528015 159.59340668 C-101.8829483 156.63323377 -101.87591754 153.67410155 -101.86274719 150.71392822 C-101.87371644 149.85701016 -101.88468568 149.00009209 -101.89598733 148.11720681 C-101.82693154 141.6844631 -100.21777438 137.48971843 -95.84765625 132.60546875 C-90.79793424 128.64682241 -86.98421482 127.03275988 -80.5625 127.1875 C-79.58667969 127.20554687 -78.61085938 127.22359375 -77.60546875 127.2421875 C-76.86941406 127.26539062 -76.13335937 127.28859375 -75.375 127.3125 C-75.39071045 126.15838623 -75.4064209 125.00427246 -75.42260742 123.81518555 C-75.47738342 119.48583097 -75.51152151 115.15650629 -75.53979492 110.8269043 C-75.55477389 108.96194284 -75.57516424 107.09701595 -75.60131836 105.23217773 C-75.81262267 89.76553089 -75.3216262 76.06786077 -64.30078125 64.05078125 C-59.47754167 59.49690235 -54.60794926 56.5522359 -48.375 54.3125 C-48.36082031 53.23613281 -48.34664062 52.15976562 -48.33203125 51.05078125 C-47.92583678 36.01812895 -44.17994908 24.68854292 -33.8125 13.5625 C-24.07485528 4.57390488 -13.29033174 -0.10487567 0 0 Z M-24.375 27.3125 C-25.88642541 29.26369042 -27.12480428 31.17674898 -28.375 33.3125 C-22.86778972 41.51860803 -16.58583945 47.14214206 -6.875 49.75 C1.49467632 51.17932853 9.35885919 49.67741192 16.625 45.3125 C20.84090359 42.14320185 24.74092789 38.76970236 27.625 34.3125 C26.71183382 29.48576449 23.21578039 25.51568088 19.625 22.3125 C4.37865465 13.06510546 -11.95323254 14.00346343 -24.375 27.3125 Z M131.625 26.3125 C130.07736744 28.5949136 128.86287908 30.83674184 127.625 33.3125 C132.37633156 41.29473702 138.7037965 46.49450937 147.625 49.3125 C157.71870494 51.49019697 165.6885483 49.51685715 174.3203125 44.03125 C178.59039629 40.84678074 181.92907211 37.40028367 183.625 32.3125 C180.03628027 24.99463239 173.16794813 20.12471428 165.765625 17.171875 C153.35837305 13.77685581 140.26732076 16.5698307 131.625 26.3125 Z M285.625 28.3125 C283.36202915 31.05088813 283.36202915 31.05088813 283.77734375 33.74609375 C285.70150862 39.57179107 291.32619093 43.88595144 296.625 46.6875 C297.94379037 47.26367055 299.27758163 47.80688721 300.625 48.3125 C301.25019531 48.54839844 301.87539063 48.78429688 302.51953125 49.02734375 C310.14273186 51.40280137 317.79203129 50.46868584 324.9375 47.0625 C330.11273385 44.21201405 335.84925322 40.70071433 338.625 35.3125 C338.85962162 31.87138285 338.16121205 30.00001941 336.046875 27.2890625 C330.06534349 20.95429094 323.52656313 16.80029858 314.7421875 16.07421875 C302.1483187 15.78592537 294.33016922 19.17582455 285.625 28.3125 Z M-30.375 55.3125 C-30.00585211 62.69545782 -25.30473861 67.70189221 -20.125 72.5625 C-13.00706538 78.25063116 -5.57517698 80.02014452 3.44921875 79.69140625 C12.14396343 78.65402589 18.76701723 74.74326331 24.625 68.3125 C27.83626693 64.11069302 29.76176405 60.56460923 30.625 55.3125 C29.62082031 55.86679687 28.61664063 56.42109375 27.58203125 56.9921875 C13.42878337 64.58771743 1.37368314 66.59277832 -14.375 63.3125 C-17.59210218 62.27794528 -20.44346709 60.9825126 -23.375 59.3125 C-24.0659375 58.93351562 -24.756875 58.55453125 -25.46875 58.1640625 C-27.11950054 57.24042827 -28.7499401 56.28062079 -30.375 55.3125 Z M280.625 55.3125 C282.34839866 62.90622534 285.73084557 68.20950724 291.625 73.3125 C300.69119041 78.94534019 309.830554 81.11959223 320.421875 78.6640625 C328.73839184 75.64222253 336.68631054 69.40963413 340.625 61.3125 C341.01426971 59.32263061 341.35721113 57.32232592 341.625 55.3125 C340.655625 55.86679687 339.68625 56.42109375 338.6875 56.9921875 C326.09272981 63.91225144 314.32810871 67.00167873 299.87890625 64.2890625 C293.72676799 62.44268247 288.2248932 59.42875856 282.625 56.3125 C281.965 55.9825 281.305 55.6525 280.625 55.3125 Z M125.625 56.3125 C126.66855038 62.99591254 129.91155859 67.98606482 135.03515625 72.37890625 C143.97273059 78.8360678 151.65173709 80.29997023 162.625 79.3125 C165.9762905 78.43608525 168.68767141 77.13057572 171.625 75.3125 C172.67107422 74.69375 172.67107422 74.69375 173.73828125 74.0625 C179.37023697 70.32907549 182.8396036 65.44248222 185.625 59.3125 C185.625 58.3225 185.625 57.3325 185.625 56.3125 C182.55181528 57.46494427 179.65574924 58.79744008 176.75 60.3125 C164.7330739 66.32096305 151.45334048 66.50738754 138.7890625 62.390625 C135.38423967 61.0925987 132.38861927 59.88936456 129.46875 57.68359375 C127.74046541 56.11358972 127.74046541 56.11358972 125.625 56.3125 Z M-53.375 76.3125 C-59.43442249 83.96650736 -59.72093129 91.23785342 -59.81640625 100.6484375 C-59.83017807 101.8417569 -59.84394989 103.03507629 -59.85813904 104.26455688 C-59.88137082 106.7843973 -59.89865664 109.30429861 -59.91040039 111.82421875 C-59.93736187 115.66780874 -60.01232246 119.50866301 -60.08789062 123.3515625 C-60.10454593 125.80466906 -60.11831304 128.25779727 -60.12890625 130.7109375 C-60.15876114 131.85388275 -60.18861603 132.996828 -60.21937561 134.17440796 C-60.18780209 139.93420058 -59.82977358 143.50014296 -55.98022461 147.94384766 C-54.80313904 149.09255171 -53.60357491 150.21903983 -52.375 151.3125 C-51.1684375 152.55 -51.1684375 152.55 -49.9375 153.8125 C-49.421875 154.3075 -48.90625 154.8025 -48.375 155.3125 C-44.69430113 153.77606148 -42.38724796 151.53099055 -39.625 148.6875 C-38.82578125 147.87023437 -38.0265625 147.05296875 -37.203125 146.2109375 C-36.59984375 145.58445312 -35.9965625 144.95796875 -35.375 144.3125 C-36.38524586 142.13658584 -37.28459369 140.41031058 -38.92211914 138.63867188 C-40.91855822 135.44222228 -40.82417718 132.49930809 -40.80859375 128.84375 C-40.8138356 128.126427 -40.81907745 127.409104 -40.82447815 126.67004395 C-40.83088642 125.15715832 -40.82957678 123.64422279 -40.82104492 122.13134766 C-40.81252666 119.8197348 -40.84132027 117.51058811 -40.87304688 115.19921875 C-40.87465891 113.72656324 -40.87408132 112.25390336 -40.87109375 110.78125 C-40.88232773 110.09260864 -40.89356171 109.40396729 -40.90513611 108.69445801 C-40.85655016 105.34106274 -40.57873523 103.5816647 -38.53149414 100.87695312 C-36.375 99.3125 -36.375 99.3125 -33.375 98.8125 C-30.375 99.3125 -30.375 99.3125 -26.375 103.3125 C-25.88 115.1925 -25.88 115.1925 -25.375 127.3125 C-8.545 127.3125 8.285 127.3125 25.625 127.3125 C25.955 119.0625 26.285 110.8125 26.625 102.3125 C30.625 99.3125 30.625 99.3125 32.984375 99.23828125 C34.16773438 99.42970703 34.16773438 99.42970703 35.375 99.625 C36.17421875 99.74488281 36.9734375 99.86476563 37.796875 99.98828125 C38.40015625 100.09527344 39.0034375 100.20226562 39.625 100.3125 C41.12926468 106.74556781 40.84930058 113.23987372 40.875 119.8125 C40.895625 121.13121094 40.91625 122.44992188 40.9375 123.80859375 C40.94523437 125.71318359 40.94523437 125.71318359 40.953125 127.65625 C40.9624707 128.81318359 40.97181641 129.97011719 40.98144531 131.16210938 C40.39798034 136.31898061 37.69908887 139.21371484 34.625 143.3125 C38.585 147.2725 42.545 151.2325 46.625 155.3125 C47.676875 154.425625 48.72875 153.53875 49.8125 152.625 C50.40417969 152.12613281 50.99585938 151.62726563 51.60546875 151.11328125 C52.27191406 150.51902344 52.93835938 149.92476563 53.625 149.3125 C54.47868164 148.71630859 55.33236328 148.12011719 56.21191406 147.50585938 C59.67927211 143.98498768 59.24221972 139.80493072 59.29408264 135.10820007 C59.28082443 133.89042374 59.26756622 132.6726474 59.25390625 131.41796875 C59.25631821 130.15664627 59.25873016 128.89532379 59.26121521 127.59577942 C59.26023594 124.92781185 59.24942705 122.26208767 59.22192383 119.59448242 C59.18794354 116.19493162 59.19382732 112.79689498 59.2125864 109.39727306 C59.22577625 106.1332523 59.20741021 102.86945718 59.19140625 99.60546875 C59.19636612 98.39376511 59.20132599 97.18206146 59.20643616 95.93363953 C59.09447366 87.84232896 58.08411152 82.32176842 52.66015625 76.03515625 C52.00917969 75.48730469 51.35820312 74.93945312 50.6875 74.375 C50.03910156 73.80910156 49.39070313 73.24320312 48.72265625 72.66015625 C46.35039467 71.13607758 44.39939271 70.69367743 41.625 70.3125 C41.2125 70.95316406 40.8 71.59382813 40.375 72.25390625 C32.89169932 83.46215347 24.11213268 90.76946603 10.77539062 93.91772461 C-2.08585968 96.27883289 -14.98701904 94.48355438 -26.125 87.5625 C-31.77753723 83.50005945 -36.99016482 78.75064438 -40.6875 72.8125 C-41.244375 71.9875 -41.80125 71.1625 -42.375 70.3125 C-47.10925278 70.3125 -49.92564423 73.26034277 -53.375 76.3125 Z M104.625 74.3125 C96.91361199 82.38255722 96.14572208 89.22105204 96.0859375 99.96484375 C96.07358063 101.17894424 96.06122375 102.39304474 96.04849243 103.64393616 C96.02897161 106.20487671 96.01770214 108.7658918 96.01416016 111.3269043 C96.00005708 115.23418504 95.93265172 119.13828212 95.86328125 123.04492188 C95.85088397 125.53904834 95.84166374 128.03319304 95.8359375 130.52734375 C95.80921967 131.68902573 95.78250183 132.8507077 95.75497437 134.04759216 C95.80331615 139.84565437 96.14561948 143.48003427 100.02197266 147.95532227 C101.19809591 149.1005081 102.39690093 150.22323916 103.625 151.3125 C104.8315625 152.55 104.8315625 152.55 106.0625 153.8125 C106.578125 154.3075 107.09375 154.8025 107.625 155.3125 C111.30569887 153.77606148 113.61275204 151.53099055 116.375 148.6875 C117.17421875 147.87023437 117.9734375 147.05296875 118.796875 146.2109375 C119.40015625 145.58445312 120.0034375 144.95796875 120.625 144.3125 C119.3330958 141.37205298 119.3330958 141.37205298 117.07788086 139.16601562 C114.7883596 136.24515435 115.17729369 133.02947304 115.19140625 129.46875 C115.1861644 128.70324829 115.18092255 127.93774658 115.17552185 127.14904785 C115.16910318 125.53183199 115.1704367 123.91456944 115.17895508 122.29736328 C115.18747044 119.82109653 115.15869722 117.34713281 115.12695312 114.87109375 C115.12534114 113.29947986 115.12591859 111.72786188 115.12890625 110.15625 C115.11767227 109.41556274 115.10643829 108.67487549 115.09486389 107.91174316 C115.14001982 104.5864444 115.16894318 102.79326605 117.50854492 100.3269043 C120.10919185 99.08042974 121.54810081 99.16770748 124.375 99.625 C125.17421875 99.74488281 125.9734375 99.86476563 126.796875 99.98828125 C127.40015625 100.09527344 128.0034375 100.20226562 128.625 100.3125 C130.81380097 109.06770387 130.23299392 118.29636027 130.625 127.3125 C147.125 127.3125 163.625 127.3125 180.625 127.3125 C180.955 119.7225 181.285 112.1325 181.625 104.3125 C183.625 100.3125 183.625 100.3125 185.625 99.3125 C188.76244356 99.03967882 190.92560879 98.97391149 193.78491211 100.3581543 C196.48374961 103.22457252 196.21755464 106.09206783 196.19140625 109.83203125 C196.19760483 110.56822189 196.20380341 111.30441254 196.21018982 112.06291199 C196.21729015 113.62045979 196.21411007 115.17808345 196.20141602 116.7355957 C196.1876044 119.10707398 196.2215413 121.47456174 196.25976562 123.84570312 C196.26071744 125.36198013 196.25885466 126.87826203 196.25390625 128.39453125 C196.26716446 129.09786087 196.28042267 129.80119049 196.29408264 130.52583313 C196.18874273 136.16192045 194.41339709 138.45569451 190.625 142.3125 C192.16143852 145.99319887 194.40650945 148.30025204 197.25 151.0625 C198.06726563 151.86171875 198.88453125 152.6609375 199.7265625 153.484375 C200.35304688 154.08765625 200.97953125 154.6909375 201.625 155.3125 C205.02187676 153.84688126 207.23222686 151.94602456 209.8125 149.3125 C210.50730469 148.61125 211.20210938 147.91 211.91796875 147.1875 C214.71215961 144.11836588 214.76344156 142.16753098 214.81787109 138.10351562 C214.84196548 136.47041443 214.84196548 136.47041443 214.86654663 134.80432129 C214.91107451 129.79793906 214.95210339 124.79169058 214.97509766 119.78515625 C214.99161 117.1509515 215.01883673 114.51679068 215.05712891 111.8828125 C215.11215483 108.07788925 215.13381726 104.2740187 215.1484375 100.46875 C215.18244156 98.71818298 215.18244156 98.71818298 215.21713257 96.93225098 C215.19565304 88.53686692 213.62979895 81.66104088 207.81063843 75.34240723 C204.53171899 72.24484198 202.13134797 70.99925509 197.625 70.3125 C197.17511719 71.01375 196.72523438 71.715 196.26171875 72.4375 C188.43052435 83.9881194 178.30200201 91.2509813 164.625 94.3125 C148.92435569 95.2702393 136.40057101 93.25129067 123.625 83.3125 C120.13081947 79.95246534 117.31681238 76.49846409 114.875 72.3125 C114.4625 71.6525 114.05 70.9925 113.625 70.3125 C109.5033707 70.3125 107.8858037 71.83428918 104.625 74.3125 Z M258.97265625 75.9609375 C251.6390713 84.17311821 251.46879613 92.61579342 251.45703125 103.22265625 C251.45370285 104.26771835 251.45037445 105.31278046 251.44694519 106.38951111 C251.44189594 108.59243328 251.43953624 110.79536306 251.43969727 112.99829102 C251.43750532 116.3668267 251.41931328 119.73503758 251.40039062 123.10351562 C251.39745738 125.24739472 251.39547212 127.39127536 251.39453125 129.53515625 C251.38734573 130.5404689 251.38016022 131.54578156 251.37275696 132.58155823 C251.37583359 133.52281052 251.37891022 134.46406281 251.38208008 135.43383789 C251.38065506 136.25735245 251.37923004 137.080867 251.37776184 137.92933655 C251.9738716 143.67532246 254.68172233 146.71319455 258.75 150.625 C259.66007812 151.50800781 260.57015625 152.39101562 261.5078125 153.30078125 C262.55582031 154.29658203 262.55582031 154.29658203 263.625 155.3125 C268.50549925 151.3705583 272.6830583 147.19299925 276.625 142.3125 C275.4184375 141.1678125 275.4184375 141.1678125 274.1875 140 C270.33133798 135.95573251 270.49719342 132.99296197 270.4921875 127.59765625 C270.49075241 126.61943153 270.49075241 126.61943153 270.48928833 125.6214447 C270.48860869 124.24380395 270.49044792 122.86615997 270.49462891 121.48852539 C270.49997165 119.38615674 270.49468113 117.28400256 270.48828125 115.18164062 C270.48894224 113.84114536 270.49022383 112.50065024 270.4921875 111.16015625 C270.49331543 109.94336182 270.49444336 108.72656738 270.49560547 107.47290039 C270.60183317 104.87833892 270.85522915 102.77354989 271.625 100.3125 C273.03803238 100.0618981 274.45579474 99.83788079 275.875 99.625 C276.66390625 99.49738281 277.4528125 99.36976562 278.265625 99.23828125 C280.625 99.3125 280.625 99.3125 284.625 102.3125 C285.12 114.6875 285.12 114.6875 285.625 127.3125 C302.455 127.3125 319.285 127.3125 336.625 127.3125 C336.955 119.3925 337.285 111.4725 337.625 103.3125 C341.625 99.3125 341.625 99.3125 344.625 98.8125 C348.39000074 99.44000012 349.3295812 100.29257922 351.625 103.3125 C352.03580438 105.92171888 352.21035689 108.1037533 352.19140625 110.7109375 C352.19760483 111.42351715 352.20380341 112.1360968 352.21018982 112.87026978 C352.21727862 114.37476235 352.21413018 115.87933351 352.20141602 117.38378906 C352.18758147 119.67401357 352.22158458 121.96012257 352.25976562 124.25 C352.26071727 125.71614683 352.25885558 127.18229872 352.25390625 128.6484375 C352.26716446 129.32675629 352.28042267 130.00507507 352.29408264 130.70394897 C352.18684782 136.24250487 350.33422886 138.5123713 346.625 142.3125 C348.16143852 145.99319887 350.40650945 148.30025204 353.25 151.0625 C354.06726563 151.86171875 354.88453125 152.6609375 355.7265625 153.484375 C356.35304688 154.08765625 356.97953125 154.6909375 357.625 155.3125 C360.72362934 153.9338147 362.86623432 152.34226802 365.25 149.9375 C365.84039062 149.35226563 366.43078125 148.76703125 367.0390625 148.1640625 C370.07976772 144.61407661 370.8760067 141.78432033 370.8996582 137.13598633 C370.90919022 136.10423782 370.91872223 135.07248932 370.92854309 134.00947571 C370.92763168 132.89904404 370.92672028 131.78861237 370.92578125 130.64453125 C370.93220894 128.92045296 370.93220894 128.92045296 370.93876648 127.1615448 C370.94451003 124.72806456 370.94500987 122.29456714 370.94067383 119.86108398 C370.9375267 116.15643561 370.96092917 112.45259578 370.98632812 108.74804688 C370.98860253 106.38020934 370.98930396 104.01236966 370.98828125 101.64453125 C370.997491 100.54422073 371.00670074 99.44391022 371.01618958 98.31025696 C370.95939541 88.75905706 369.51146636 81.19896636 362.625 74.3125 C359.04081888 71.18808161 359.04081888 71.18808161 354.609375 70.4921875 C352.11009941 71.52535261 351.4053112 72.62259303 349.9375 74.875 C342.45222193 85.34313324 332.3088922 91.97488411 319.625 94.3125 C316.82593753 94.58934122 314.06147551 94.64718571 311.25 94.625 C310.50685547 94.62008545 309.76371094 94.6151709 308.99804688 94.61010742 C296.14091106 94.33687927 286.02742282 89.04185014 276.6328125 80.44921875 C274.13660778 77.79275186 272.3701969 75.00695328 270.6953125 71.78125 C270.34210938 71.2965625 269.98890625 70.811875 269.625 70.3125 C265.00001846 70.3125 262.13174372 72.80931832 258.97265625 75.9609375 Z M-11.375 143.3125 C-9.725 146.2825 -8.075 149.2525 -6.375 152.3125 C-2.415 152.3125 1.545 152.3125 5.625 152.3125 C7.275 149.3425 8.925 146.3725 10.625 143.3125 C3.365 143.3125 -3.895 143.3125 -11.375 143.3125 Z M287.625 154.3125 C283.665 158.2725 279.705 162.2325 275.625 166.3125 C278.93898205 170.37523906 278.93898205 170.37523906 281.625 170.6953125 C285.72137373 170.16726432 287.22833786 169.72851151 290.1875 166.625 C291.83521822 162.8280841 291.92314205 161.20692614 290.625 157.3125 C289.635 156.3225 288.645 155.3325 287.625 154.3125 Z M-28.4609375 159.125 C-28.96882813 159.640625 -29.47671875 160.15625 -30 160.6875 C-30.515625 161.19539062 -31.03125 161.70328125 -31.5625 162.2265625 C-34.46551912 164.78679427 -34.46551912 164.78679427 -35.375 168.3125 C-32.67132431 170.15099947 -31.20874606 170.30953118 -27.875 170.25 C-24.29717615 169.57461588 -24.29717615 169.57461588 -21.9375 167.125 C-20.11162253 163.83842056 -19.89175761 162.01735832 -20.375 158.3125 C-21.035 157.3225 -21.695 156.3325 -22.375 155.3125 C-25.34456003 155.3125 -26.45685143 157.13146175 -28.4609375 159.125 Z M21.625 155.3125 C19.98772073 157.81657418 19.62304799 159.22075552 19.6875 162.25 C20.88927191 166.17578825 22.35935515 167.84512389 25.625 170.3125 C29.76724306 170.89241403 31.10675489 170.65799674 34.625 168.3125 C33.09281315 164.68188333 30.9066856 162.3261227 28.125 159.5625 C27.3309375 158.76328125 26.536875 157.9640625 25.71875 157.140625 C23.83716538 155.09326391 23.83716538 155.09326391 21.625 155.3125 Z M129.0234375 157.71875 C128.01052458 158.74499072 127.00291873 159.77649005 126 160.8125 C125.484375 161.33714844 124.96875 161.86179688 124.4375 162.40234375 C123.16215068 163.70131065 121.89298739 165.00634577 120.625 166.3125 C120.955 167.3025 121.285 168.2925 121.625 169.3125 C124.47824437 170.73912219 126.45954549 170.62283868 129.625 170.3125 C132.5565113 168.8839939 132.5565113 168.8839939 134.625 166.3125 C135.5971556 162.68311908 136.04794024 160.41214462 134.6875 156.875 C134.336875 156.359375 133.98625 155.84375 133.625 155.3125 C131.27908391 155.08616257 131.27908391 155.08616257 129.0234375 157.71875 Z M177.625 155.3125 C175.28331236 158.82503146 175.12876323 160.17719356 175.625 164.3125 C177.42493774 167.01240662 178.708773 168.8543865 181.625 170.3125 C185.67642119 170.57110135 187.16837669 170.61691554 190.625 168.3125 C189.09281315 164.68188333 186.9066856 162.3261227 184.125 159.5625 C183.3309375 158.76328125 182.536875 157.9640625 181.71875 157.140625 C179.83716538 155.09326391 179.83716538 155.09326391 177.625 155.3125 Z M333.625 155.3125 C331.1150028 159.07749581 331.01023256 160.85543606 331.625 165.3125 C334.04962844 168.48581062 334.04962844 168.48581062 337.625 170.3125 C341.08423624 170.19719213 343.5340909 169.85795455 346.625 168.3125 C345.09281315 164.68188333 342.9066856 162.3261227 340.125 159.5625 C339.3309375 158.76328125 338.536875 157.9640625 337.71875 157.140625 C335.83716538 155.09326391 335.83716538 155.09326391 333.625 155.3125 Z M-5.375 168.3125 C-5.87 169.488125 -6.365 170.66375 -6.875 171.875 C-9.83908759 177.79266423 -14.3733761 181.93675571 -20.375 184.6875 C-24.03039001 185.44903958 -27.66785727 185.86430037 -31.375 186.3125 C-31.39812566 195.29170777 -31.41591623 204.27090537 -31.42681217 213.25013638 C-31.43204051 217.41912828 -31.43913726 221.58809987 -31.45043945 225.75708008 C-31.46127008 229.77707686 -31.46727721 233.79705405 -31.46987724 237.81706429 C-31.47173118 239.35412975 -31.47535119 240.89119409 -31.48073006 242.42825127 C-31.48794284 244.57385487 -31.48899084 246.71937655 -31.48852539 248.86499023 C-31.490746 250.08854721 -31.49296661 251.31210419 -31.49525452 252.57273865 C-31.68785928 255.2247807 -31.68785928 255.2247807 -30.375 256.3125 C-28.44738183 256.41170863 -26.51610646 256.44049365 -24.5859375 256.44189453 C-23.3479541 256.44504669 -22.1099707 256.44819885 -20.83447266 256.45144653 C-19.47298141 256.44965675 -18.11149049 256.4476058 -16.75 256.4453125 C-15.36376936 256.44598559 -13.97753883 256.44695566 -12.59130859 256.44821167 C-9.68260578 256.4496884 -6.77393363 256.4475349 -3.86523438 256.44287109 C-0.12903402 256.43717381 3.60709452 256.44045294 7.34329224 256.44644356 C10.20679266 256.45004985 13.07027593 256.44891027 15.93377686 256.44631577 C17.31174732 256.44564668 18.68971932 256.44647426 20.06768799 256.44879532 C21.99043754 256.45132292 23.91319252 256.44679024 25.8359375 256.44189453 C26.93212402 256.44109894 28.02831055 256.44030334 29.15771484 256.43948364 C31.56923351 256.59154235 31.56923351 256.59154235 32.625 255.3125 C32.71925595 253.16506451 32.74242648 251.01448974 32.73852539 248.86499023 C32.73867142 248.19184784 32.73881744 247.51870544 32.7389679 246.82516479 C32.73826878 244.59044216 32.73047652 242.3558019 32.72265625 240.12109375 C32.72079206 238.57552638 32.71936816 237.02995843 32.71836853 235.48439026 C32.7145434 231.40892923 32.70471317 227.33350363 32.69366455 223.25805664 C32.68345032 219.10238118 32.67887089 214.94670001 32.67382812 210.79101562 C32.66309089 202.63149413 32.64601454 194.47200147 32.625 186.3125 C31.74529541 186.2000293 30.86559082 186.08755859 29.95922852 185.97167969 C28.79834717 185.81086914 27.63746582 185.65005859 26.44140625 185.484375 C25.29357666 185.3306543 24.14574707 185.17693359 22.96313477 185.01855469 C16.52373552 183.65654616 12.17800797 180.30353586 8.1875 175.1875 C6.95500747 172.91971374 5.779287 170.62107399 4.625 168.3125 C1.325 168.3125 -1.975 168.3125 -5.375 168.3125 Z M266.625 257.3125 C266.53056665 259.61303835 266.50757872 261.91652173 266.51147461 264.21899414 C266.51132858 264.94090439 266.51118256 265.66281464 266.5110321 266.40660095 C266.51173131 268.80364947 266.51952405 271.20062123 266.52734375 273.59765625 C266.5292079 275.25532489 266.53063182 276.91299407 266.53163147 278.57066345 C266.53545688 282.94204214 266.54528735 287.31338781 266.55633545 291.68475342 C266.56654908 296.14204461 266.57112899 300.59934111 266.57617188 305.05664062 C266.5869096 313.80860893 266.60398629 322.56055036 266.625 331.3125 C267.31089203 331.02950546 267.99678406 330.74651093 268.70346069 330.4549408 C270.05366806 329.9047805 270.05366806 329.9047805 271.43115234 329.34350586 C272.76936539 328.79526405 272.76936539 328.79526405 274.13461304 328.23594666 C280.54546812 325.85877284 287.65592372 326.60387336 293.8515625 329.34765625 C300.61323776 333.02636504 303.2084144 337.5798166 306.625 344.3125 C309.925 344.3125 313.225 344.3125 316.625 344.3125 C317.12 343.136875 317.615 341.96125 318.125 340.75 C320.79229864 335.35783513 325.22374387 331.01312807 330.625 328.3125 C330.64812524 319.07252448 330.66591601 309.83255886 330.67681217 300.59256077 C330.68204061 296.30250085 330.68913753 292.01246067 330.70043945 287.72241211 C330.71126975 283.585706 330.71727714 279.44901892 330.71987724 275.31229973 C330.72173124 273.73057696 330.72535136 272.14885529 330.73073006 270.56714058 C330.7379424 268.35927162 330.73899086 266.15148227 330.73852539 263.94360352 C330.740746 262.68451675 330.74296661 261.42542999 330.74525452 260.12818909 C330.94707726 257.40914705 330.94707726 257.40914705 329.625 256.3125 C327.69738183 256.21329137 325.76610646 256.18450635 323.8359375 256.18310547 C322.5979541 256.17995331 321.3599707 256.17680115 320.08447266 256.17355347 C318.72298141 256.17534325 317.36149049 256.1773942 316 256.1796875 C314.61376936 256.17901441 313.22753883 256.17804434 311.84130859 256.17678833 C308.93260578 256.1753116 306.02393363 256.1774651 303.11523438 256.18212891 C299.37903402 256.18782619 295.64290548 256.18454706 291.90670776 256.17855644 C289.04320734 256.17495015 286.17972407 256.17608973 283.31622314 256.17868423 C281.93825268 256.17935332 280.56028068 256.17852574 279.18231201 256.17620468 C277.25956246 256.17367708 275.33680748 256.17820976 273.4140625 256.18310547 C272.31787598 256.18390106 271.22168945 256.18469666 270.09228516 256.18551636 C267.68076649 256.03345765 267.68076649 256.03345765 266.625 257.3125 Z M-35.375 344.3125 C-33.83856148 347.99319887 -31.59349055 350.30025204 -28.75 353.0625 C-27.93273437 353.86171875 -27.11546875 354.6609375 -26.2734375 355.484375 C-25.64695312 356.08765625 -25.02046875 356.6909375 -24.375 357.3125 C-23.385 356.9825 -22.395 356.6525 -21.375 356.3125 C-19.94837781 353.45925563 -20.06466132 351.47795451 -20.375 348.3125 C-21.8035061 345.3809887 -21.8035061 345.3809887 -24.375 343.3125 C-28.68765475 342.15732462 -31.59343183 341.74103364 -35.375 344.3125 Z M22.8125 344.4375 C20.39486142 347.61496785 19.70938467 349.34642055 19.625 353.3125 C20.44842532 355.63230946 20.44842532 355.63230946 21.625 357.3125 C25.30569887 355.77606148 27.61275204 353.53099055 30.375 350.6875 C31.17421875 349.87023437 31.9734375 349.05296875 32.796875 348.2109375 C33.40015625 347.58445312 34.0034375 346.95796875 34.625 346.3125 C34.295 345.3225 33.965 344.3325 33.625 343.3125 C29.44344663 341.22172332 26.48877822 341.65986757 22.8125 344.4375 Z M120.625 344.3125 C122.16143852 347.99319887 124.40650945 350.30025204 127.25 353.0625 C128.06726563 353.86171875 128.88453125 354.6609375 129.7265625 355.484375 C130.35304687 356.08765625 130.97953125 356.6909375 131.625 357.3125 C132.615 356.9825 133.605 356.6525 134.625 356.3125 C135.96672044 350.57280256 135.96672044 350.57280256 133.8125 345.375 C131.16825255 342.8818524 130.31936563 342.35682121 126.6875 342.125 C123.45068546 342.0655642 123.45068546 342.0655642 120.625 344.3125 Z M176.625 346.3125 C175.23949803 349.08350394 175.4372533 351.2459706 175.625 354.3125 C176.615 355.7975 176.615 355.7975 177.625 357.3125 C181.30569887 355.77606148 183.61275204 353.53099055 186.375 350.6875 C187.17421875 349.87023437 187.9734375 349.05296875 188.796875 348.2109375 C189.40015625 347.58445312 190.0034375 346.95796875 190.625 346.3125 C190.295 345.3225 189.965 344.3325 189.625 343.3125 C184.3268158 340.6634079 180.6165062 342.43503683 176.625 346.3125 Z M275.625 346.3125 C279.585 350.2725 283.545 354.2325 287.625 358.3125 C290.96656485 354.97093515 291.53443468 353.93133108 291.625 349.3125 C290.35642887 345.86782594 290.35642887 345.86782594 287.625 343.3125 C281.84234618 341.07748656 280.13088297 341.80661703 275.625 346.3125 Z M331.625 347.3125 C331.01023256 351.76956394 331.1150028 353.54750419 333.625 357.3125 C337.25561667 355.78031315 339.6113773 353.5941856 342.375 350.8125 C343.17421875 350.0184375 343.9734375 349.224375 344.796875 348.40625 C346.84423609 346.52466538 346.84423609 346.52466538 346.625 344.3125 C340.35061229 340.59434432 336.49550067 341.98892951 331.625 347.3125 Z M-50.72265625 359.4296875 C-51.61855469 360.33976562 -52.51445313 361.24984375 -53.4375 362.1875 C-54.33597656 363.09242188 -55.23445313 363.99734375 -56.16015625 364.9296875 C-59.2942513 368.30146525 -59.5051737 369.94796061 -59.55200195 374.44555664 C-59.56483719 375.51749771 -59.57767242 376.58943878 -59.59089661 377.69386292 C-59.59828354 378.85836472 -59.60567047 380.02286652 -59.61328125 381.22265625 C-59.621353 382.41926376 -59.62942474 383.61587128 -59.63774109 384.84873962 C-59.65159521 387.38832139 -59.66231139 389.92792189 -59.67016602 392.4675293 C-59.68732184 396.33483782 -59.73119119 400.20127899 -59.77539062 404.06835938 C-59.78552239 406.53645205 -59.79403698 409.00455199 -59.80078125 411.47265625 C-59.81828934 412.62298843 -59.83579742 413.77332062 -59.85383606 414.95851135 C-59.82727353 424.89148199 -57.34709071 432.1703583 -50.375 439.3125 C-47.22796917 441.79495837 -47.22796917 441.79495837 -43.42578125 442.125 C-40.75075493 441.06518005 -39.78955277 439.69948909 -38.125 437.375 C-37.60421875 436.66472656 -37.0834375 435.95445312 -36.546875 435.22265625 C-35.20069004 433.4018713 -35.20069004 433.4018713 -35.375 431.3125 C-34.49714844 430.90644531 -34.49714844 430.90644531 -33.6015625 430.4921875 C-31.3960893 429.32367363 -29.67445354 428.01800865 -27.75 426.4375 C-23.29760456 423.02538386 -18.61629228 421.19355106 -13.375 419.3125 C-11.725 418.6525 -10.075 417.9925 -8.375 417.3125 C-8.375 405.4325 -8.375 393.5525 -8.375 381.3125 C-13.655 381.3125 -18.935 381.3125 -24.375 381.3125 C-26.16000417 383.09750417 -25.52623024 385.76324717 -25.55078125 388.17578125 C-25.57462891 389.37267578 -25.59847656 390.56957031 -25.62304688 391.80273438 C-25.66581518 394.33902464 -25.69717407 396.87553444 -25.71679688 399.41210938 C-25.74451172 400.61287109 -25.77222656 401.81363281 -25.80078125 403.05078125 C-25.81536377 404.15462158 -25.82994629 405.25846191 -25.8449707 406.39575195 C-26.49127493 409.95236023 -27.52982365 411.1439933 -30.375 413.3125 C-33.375 413.8125 -33.375 413.8125 -36.375 413.3125 C-39.51576538 411.02293014 -40.29715998 409.80689992 -40.90844727 405.92431641 C-40.94146279 404.58792772 -40.95112266 403.25082364 -40.94140625 401.9140625 C-40.95070412 400.84519302 -40.95070412 400.84519302 -40.96018982 399.75473022 C-40.96727862 398.25023765 -40.96413018 396.74566649 -40.95141602 395.24121094 C-40.93758147 392.95098643 -40.97158458 390.66487743 -41.00976562 388.375 C-41.01071727 386.90885317 -41.00885558 385.44270128 -41.00390625 383.9765625 C-41.01716446 383.29824371 -41.03042267 382.61992493 -41.04408264 381.92105103 C-40.93684782 376.38249513 -39.08422886 374.1126287 -35.375 370.3125 C-36.90718685 366.68188333 -39.0933144 364.3261227 -41.875 361.5625 C-42.6690625 360.76328125 -43.463125 359.9640625 -44.28125 359.140625 C-47.30428619 356.50110832 -47.73908154 356.73900948 -50.72265625 359.4296875 Z M43.90234375 359.9375 C42.78653352 361.05999173 41.67337334 362.18512226 40.5625 363.3125 C39.99466797 363.88484375 39.42683594 364.4571875 38.84179688 365.046875 C37.43396411 366.46653829 36.02919752 367.88924097 34.625 369.3125 C35.429375 370.240625 36.23375 371.16875 37.0625 372.125 C40.56590769 376.16739349 40.75272981 379.51285741 40.7578125 384.7734375 C40.75974609 386.68769531 40.75974609 386.68769531 40.76171875 388.640625 C40.75962402 389.30513672 40.7575293 389.96964844 40.75537109 390.65429688 C40.75003763 392.6732542 40.75531408 394.69198724 40.76171875 396.7109375 C40.76042969 397.9896875 40.75914062 399.2684375 40.7578125 400.5859375 C40.75668457 401.75560059 40.75555664 402.92526367 40.75439453 404.13037109 C40.63841572 406.98257461 40.28030746 409.5409464 39.625 412.3125 C38.21196762 412.5631019 36.79420526 412.78711921 35.375 413 C34.58609375 413.12761719 33.7971875 413.25523437 32.984375 413.38671875 C29.85230945 413.28819351 28.83514666 412.51349254 26.625 410.3125 C26.11083984 407.52514648 26.11083984 407.52514648 26.0859375 404.18359375 C26.06273438 402.98412109 26.03953125 401.78464844 26.015625 400.54882812 C26.00789063 398.6684082 26.00789063 398.6684082 26 396.75 C25.9745713 394.26943057 25.94113284 391.78892607 25.8984375 389.30859375 C25.89247559 388.20700928 25.88651367 387.1054248 25.88037109 385.97045898 C25.89460197 383.15794221 25.89460197 383.15794221 23.625 381.3125 C18.345 381.3125 13.065 381.3125 7.625 381.3125 C7.625 393.1925 7.625 405.0725 7.625 417.3125 C10.595 418.3025 13.565 419.2925 16.625 420.3125 C27.39243331 425.11534197 36.06181176 431.80114936 41.625 442.3125 C45.51906889 441.7774888 47.72945957 440.83166948 50.6875 438.25 C51.33847656 437.70214844 51.98945313 437.15429688 52.66015625 436.58984375 C58.90010822 429.35745409 59.2953236 422.43968325 59.40234375 413.23046875 C59.42277237 411.98050613 59.44320099 410.73054352 59.46424866 409.44270325 C59.49754512 406.80623817 59.51956947 404.1696095 59.53100586 401.53295898 C59.54409945 398.84779759 59.59277355 396.16709157 59.67456055 393.4831543 C60.97872416 376.91488224 60.97872416 376.91488224 54.67152405 362.38923645 C49.37697494 357.05841146 49.37697494 357.05841146 43.90234375 359.9375 Z M258.125 362.5625 C257.61324219 363.05363281 257.10148437 363.54476563 256.57421875 364.05078125 C253.04498025 367.54277185 251.78226143 369.67480429 251.49128723 374.55522156 C251.48747543 375.37190811 251.48366364 376.18859467 251.47973633 377.0300293 C251.47335648 377.96167404 251.46697662 378.89331879 251.46040344 379.85319519 C251.45929062 380.85425797 251.4581778 381.85532074 251.45703125 382.88671875 C251.45370285 383.92512405 251.45037445 384.96352936 251.44694519 386.03340149 C251.44188382 388.23149168 251.43953662 390.42958954 251.43969727 392.62768555 C251.43751953 395.97002052 251.41937943 399.31202066 251.40039062 402.65429688 C251.39745469 404.79426971 251.39547124 406.93424411 251.39453125 409.07421875 C251.38734573 410.06516037 251.38016022 411.05610199 251.37275696 412.07707214 C251.40391285 421.67109844 252.24755253 429.85823185 259.265625 436.9765625 C262.68948552 440.11758237 264.93584607 441.62883262 269.625 442.3125 C269.95371094 441.755625 270.28242188 441.19875 270.62109375 440.625 C278.70221613 427.6601641 289.37514579 422.0624514 303.625 417.3125 C303.625 405.4325 303.625 393.5525 303.625 381.3125 C298.345 381.3125 293.065 381.3125 287.625 381.3125 C284.91041647 384.02708353 285.37208869 385.51596475 285.3515625 389.30859375 C285.3309375 390.50677734 285.3103125 391.70496094 285.2890625 392.93945312 C285.26306157 395.4758437 285.24480791 398.01232574 285.234375 400.54882812 C285.21117187 401.74830078 285.18796875 402.94777344 285.1640625 404.18359375 C285.15173584 405.83766235 285.15173584 405.83766235 285.13916016 407.52514648 C284.625 410.3125 284.625 410.3125 282.73876953 412.19091797 C280.12747446 413.5764908 278.7662398 413.46770056 275.875 413 C275.07578125 412.88011719 274.2765625 412.76023437 273.453125 412.63671875 C272.84984375 412.52972656 272.2465625 412.42273438 271.625 412.3125 C269.94354279 406.87303646 270.40069512 401.10373871 270.38476562 395.46801758 C270.37504747 393.38517501 270.34399135 391.30331499 270.3125 389.22070312 C270.30734375 387.90134766 270.3021875 386.58199219 270.296875 385.22265625 C270.2875293 384.01746338 270.27818359 382.81227051 270.26855469 381.57055664 C270.82427811 376.49101621 273.56004658 373.2531544 276.625 369.3125 C274.6488076 367.30948146 272.66925526 365.31000133 270.6875 363.3125 C270.12353516 362.74015625 269.55957031 362.1678125 268.97851562 361.578125 C267.54621224 360.13724495 266.08758871 358.72262857 264.625 357.3125 C262.27341039 357.3125 259.79384507 360.91046949 258.125 362.5625 Z M355.0234375 359.71875 C354.01052458 360.74499072 353.00291873 361.77649005 352 362.8125 C351.484375 363.33714844 350.96875 363.86179687 350.4375 364.40234375 C349.16215068 365.70131065 347.89298739 367.00634577 346.625 368.3125 C347.63524586 370.48841416 348.53459369 372.21468942 350.17211914 373.98632812 C352.16855822 377.18277772 352.07417718 380.12569191 352.05859375 383.78125 C352.0638356 384.498573 352.06907745 385.215896 352.07447815 385.95495605 C352.08088642 387.46784168 352.07957678 388.98077721 352.07104492 390.49365234 C352.06252666 392.8052652 352.09132027 395.11441189 352.12304688 397.42578125 C352.12465891 398.89843676 352.12408132 400.37109664 352.12109375 401.84375 C352.13794472 402.87671204 352.13794472 402.87671204 352.15513611 403.93054199 C352.10655016 407.28393726 351.82873523 409.0433353 349.78149414 411.74804688 C347.625 413.3125 347.625 413.3125 344.625 413.8125 C340.89063273 413.19010546 339.93828056 412.2662027 337.625 409.3125 C337.0949707 406.39575195 337.0949707 406.39575195 337.05078125 403.05078125 C337.02306641 401.85001953 336.99535156 400.64925781 336.96679688 399.41210938 C336.95712891 398.16236328 336.94746094 396.91261719 336.9375 395.625 C336.89562797 393.14186192 336.85025402 390.65877953 336.80078125 388.17578125 C336.78958252 387.07532471 336.77838379 385.97486816 336.7668457 384.84106445 C336.91026118 382.37563042 336.91026118 382.37563042 335.625 381.3125 C330.345 381.3125 325.065 381.3125 319.625 381.3125 C319.625 393.5225 319.625 405.7325 319.625 418.3125 C323.915 419.6325 328.205 420.9525 332.625 422.3125 C341.26171864 427.63512893 348.32373294 433.61842202 353.625 442.3125 C358.41852423 441.88954198 361.35170917 439.65792947 364.625 436.3125 C370.79719795 428.42580262 370.94151001 420.88595376 370.9609375 411.24609375 C370.9675943 410.09383804 370.9742511 408.94158234 370.98110962 407.75440979 C370.99120485 405.32627961 370.99592761 402.89812185 370.99560547 400.4699707 C370.99998959 396.75881446 371.03637451 393.04883763 371.07421875 389.33789062 C371.08008535 386.97396239 371.08405579 384.61002852 371.0859375 382.24609375 C371.10030853 381.13971054 371.11467957 380.03332733 371.12948608 378.89341736 C371.0785503 370.3005678 369.101909 366.48564769 363 360.4375 C362.40960938 359.84195312 361.81921875 359.24640625 361.2109375 358.6328125 C358.34453438 356.2464966 357.72123622 357.22348872 355.0234375 359.71875 Z M305.625 360.3125 C304.635 362.2925 303.645 364.2725 302.625 366.3125 C308.235 366.3125 313.845 366.3125 319.625 366.3125 C318.17211014 361.7283037 318.17211014 361.7283037 316.625 360.3125 C314.77212498 360.24023498 312.91666122 360.2286878 311.0625 360.25 C310.05058594 360.25902344 309.03867187 360.26804687 307.99609375 360.27734375 C307.21363281 360.28894531 306.43117188 360.30054688 305.625 360.3125 Z M105.27734375 359.4296875 C104.38144531 360.33976562 103.48554688 361.24984375 102.5625 362.1875 C101.66402344 363.09242188 100.76554688 363.99734375 99.83984375 364.9296875 C96.68845531 368.32007013 96.49274073 369.99586454 96.43212891 374.52148438 C96.41606598 375.61021851 96.40000305 376.69895264 96.38345337 377.82067871 C96.33892549 382.82706094 96.29789661 387.83330942 96.27490234 392.83984375 C96.25839 395.4740485 96.23116327 398.10820932 96.19287109 400.7421875 C96.13784517 404.54711075 96.11618274 408.3509813 96.1015625 412.15625 C96.06755844 413.90681702 96.06755844 413.90681702 96.03286743 415.69274902 C96.05434696 424.08813308 97.62020105 430.96395912 103.43936157 437.28259277 C106.71828101 440.38015802 109.11865203 441.62574491 113.625 442.3125 C114.07488281 441.61125 114.52476562 440.91 114.98828125 440.1875 C122.81947565 428.6368806 132.94799799 421.3740187 146.625 418.3125 C162.13038269 417.36667166 175.14531503 419.18350607 187.625 429.3125 C191.39901245 433.36356067 194.55898471 437.71347707 197.625 442.3125 C201.48579451 441.77534598 203.73190902 440.85090021 206.6875 438.3125 C207.33847656 437.77625 207.98945313 437.24 208.66015625 436.6875 C214.70576921 429.37988036 215.25124872 421.6534003 215.26171875 412.46484375 C215.27266068 411.25357315 215.2836026 410.04230255 215.2948761 408.79432678 C215.31067635 406.24533323 215.31595643 403.69625503 215.3112793 401.1472168 C215.31249764 397.25751939 215.37241093 393.37154675 215.43554688 389.48242188 C215.44368627 386.99740498 215.44836063 384.51237382 215.44921875 382.02734375 C215.47279953 380.87193588 215.49638031 379.71652802 215.52067566 378.52610779 C215.45511878 372.74710449 215.08774263 369.13288712 211.22583008 364.67407227 C210.0502779 363.52763629 208.85219594 362.40347593 207.625 361.3125 C206.820625 360.4875 206.01625 359.6625 205.1875 358.8125 C204.671875 358.3175 204.15625 357.8225 203.625 357.3125 C199.94430113 358.84893852 197.63724796 361.09400945 194.875 363.9375 C194.07578125 364.75476563 193.2765625 365.57203125 192.453125 366.4140625 C191.84984375 367.04054688 191.2465625 367.66703125 190.625 368.3125 C191.63473816 370.48732065 192.52676068 372.20722255 194.17211914 373.97045898 C196.20015801 377.23965355 196.0739486 380.30240133 196.05859375 384.03515625 C196.0638356 384.77704697 196.06907745 385.51893768 196.07447815 386.28330994 C196.08088675 387.84747061 196.07957636 389.41167955 196.07104492 390.97583008 C196.06251488 393.37082274 196.09133962 395.76344481 196.12304688 398.15820312 C196.12465854 399.67968679 196.12408201 401.20117467 196.12109375 402.72265625 C196.13232773 403.43833267 196.14356171 404.15400909 196.15513611 404.89137268 C196.109655 408.12790433 196.05240693 409.85922744 193.78540039 412.26342773 C190.86273366 413.68265013 188.83250439 413.72196865 185.625 413.3125 C183.58832385 411.76743534 182.76426922 410.59103844 181.625 408.3125 C181.48306489 406.36619652 181.39885186 404.41553762 181.34375 402.46484375 C181.28767578 400.72170898 181.28767578 400.72170898 181.23046875 398.94335938 C181.16004479 396.47721672 181.08973264 394.01107087 181.01953125 391.54492188 C180.96345703 389.8037207 180.96345703 389.8037207 180.90625 388.02734375 C180.87595703 386.95605225 180.84566406 385.88476074 180.81445312 384.78100586 C180.89873508 382.3692606 180.89873508 382.3692606 179.625 381.3125 C178.12629952 381.21418854 176.62301461 381.18451544 175.12109375 381.18310547 C174.16340088 381.17995331 173.20570801 381.17680115 172.21899414 381.17355347 C171.17735107 381.1755777 170.13570801 381.17760193 169.0625 381.1796875 C168.00087646 381.17873077 166.93925293 381.17777405 165.84545898 381.17678833 C163.59586528 381.17610636 161.34626963 381.17796181 159.09667969 381.18212891 C155.63992929 381.1874769 152.18330883 381.18218446 148.7265625 381.17578125 C146.54687471 381.17644203 144.367187 381.17772318 142.1875 381.1796875 C141.14585693 381.17766327 140.10421387 381.17563904 139.03100586 381.17355347 C137.59446655 381.17828171 137.59446655 381.17828171 136.12890625 381.18310547 C135.28142822 381.18390106 134.4339502 381.18469666 133.56079102 381.18551636 C131.6184287 381.09930292 131.6184287 381.09930292 130.625 382.3125 C130.47897605 384.19067665 130.3976381 386.07395754 130.34375 387.95703125 C130.30636719 389.10880859 130.26898438 390.26058594 130.23046875 391.44726562 C130.19566406 392.66091797 130.16085938 393.87457031 130.125 395.125 C130.05604133 397.50662831 129.98328295 399.88815043 129.90625 402.26953125 C129.87595703 403.33147705 129.84566406 404.39342285 129.81445312 405.48754883 C129.65188814 407.91156875 129.31473813 409.99301119 128.625 412.3125 C127.21196762 412.5631019 125.79420526 412.78711921 124.375 413 C123.58609375 413.12761719 122.7971875 413.25523437 121.984375 413.38671875 C118.79510948 413.28639417 117.82769042 412.62400042 115.625 410.3125 C115.20643381 407.58655179 115.04016684 405.26755418 115.05859375 402.5390625 C115.04929588 401.39792496 115.04929588 401.39792496 115.03981018 400.23373413 C115.03270992 398.62491128 115.03588979 397.016015 115.04858398 395.40722656 C115.06241611 392.9523884 115.02843213 390.50138892 114.99023438 388.046875 C114.98928279 386.4817699 114.99114411 384.91666006 114.99609375 383.3515625 C114.98283554 382.62119781 114.96957733 381.89083313 114.95591736 381.13833618 C115.02984514 377.06437772 115.49271192 375.46891561 118.16430664 372.31005859 C118.97633545 371.65086426 119.78836426 370.99166992 120.625 370.3125 C119.09281315 366.68188333 116.9066856 364.3261227 114.125 361.5625 C113.3309375 360.76328125 112.536875 359.9640625 111.71875 359.140625 C108.69571381 356.50110832 108.26091846 356.73900948 105.27734375 359.4296875 Z M-25.9453125 446.109375 C-28.82293158 449.8256145 -29.74497463 452.58399381 -30.375 457.3125 C-29.68535156 456.91417969 -28.99570313 456.51585937 -28.28515625 456.10546875 C-14.51381485 448.34137916 -1.06463971 444.96128807 14.625 449.3125 C19.48030434 451.27528261 24.05270824 453.7680866 28.625 456.3125 C29.285 456.6425 29.945 456.9725 30.625 457.3125 C28.90160134 449.71877466 25.51915443 444.41549276 19.625 439.3125 C3.36212144 429.20834468 -13.42628731 431.7841223 -25.9453125 446.109375 Z M130.625 444.3125 C126.80378793 449.86552246 126.80378793 449.86552246 125.625 456.3125 C128.69818472 455.16005573 131.59425076 453.82755992 134.5 452.3125 C146.5169261 446.30403695 159.79665952 446.11761246 172.4609375 450.234375 C175.86576033 451.5324013 178.86138073 452.73563544 181.78125 454.94140625 C183.50953459 456.51141028 183.50953459 456.51141028 185.625 456.3125 C184.58144962 449.62908746 181.33844141 444.63893518 176.21484375 440.24609375 C161.56164385 429.6595436 142.89219952 430.35890055 130.625 444.3125 Z M285.625 445.3125 C283.58437364 448.50652387 281.79424415 451.69725084 280.625 455.3125 C280.955 455.9725 281.285 456.6325 281.625 457.3125 C282.24246094 456.91417969 282.85992187 456.51585937 283.49609375 456.10546875 C295.9799301 448.29594556 308.17711873 445.70357799 322.83984375 448.58203125 C329.65455121 450.36933882 335.60901416 453.72850844 341.625 457.3125 C341.25585211 449.92954218 336.55473861 444.92310779 331.375 440.0625 C324.25778257 434.37494197 316.82147641 432.59854783 307.796875 432.9375 C298.63163666 434.02107498 291.63442951 438.37036925 285.625 445.3125 Z M285.625 475.3125 C283.38691355 477.98483523 283.38691355 477.98483523 283.8125 480.25390625 C286.45223045 486.94206945 292.35810416 491.17798086 298.51171875 494.40234375 C306.0260406 497.63864133 315.30405373 497.5193433 322.9375 494.75 C329.33499153 491.82215779 334.73778467 487.18492928 338.625 481.3125 C338.625 477.37139593 336.93320756 474.76430497 334.33203125 471.86328125 C327.7261722 465.86207749 320.10710072 462.66432455 311.25 462.18359375 C300.53422737 462.70981473 292.68763455 467.53357391 285.625 475.3125 Z M132.6953125 472.15625 C130.29098892 474.87117997 128.78293002 476.83870994 127.625 480.3125 C131.7117658 487.71023878 137.70276029 492.38314566 145.4453125 495.41796875 C153.38200483 497.65077286 162.24707189 497.47536687 169.59765625 493.57421875 C170.60119141 492.94966797 170.60119141 492.94966797 171.625 492.3125 C172.34558594 491.86519531 173.06617188 491.41789062 173.80859375 490.95703125 C178.58726015 487.68649443 181.12543143 484.51993451 183.625 479.3125 C178.58545484 471.52590865 172.43715903 466.40017123 163.625 463.3125 C151.9032594 460.90604994 141.42739295 463.81304762 132.6953125 472.15625 Z " fill="#000000" transform="translate(101.375,-0.3125)"/>
<path d="M0 0 C1.00550652 -0.0098568 1.00550652 -0.0098568 2.03132629 -0.01991272 C4.2491569 -0.03961663 6.46691976 -0.05130373 8.68481445 -0.0612793 C9.4443574 -0.06535482 10.20390034 -0.06943035 10.98645973 -0.07362938 C15.00919954 -0.09448093 19.03190536 -0.10878478 23.0546875 -0.11816406 C27.19616236 -0.12920746 31.33709681 -0.16358544 35.47838116 -0.20333576 C38.67414806 -0.22957018 41.86978775 -0.23786206 45.06565285 -0.24144554 C46.59138437 -0.24629642 48.11711078 -0.25786748 49.64273643 -0.27648354 C64.62433881 -0.44788305 64.62433881 -0.44788305 71.3605957 4.17700195 C76.03635831 10.05167806 76.51471337 14.73770011 76.53759766 22.01953125 C76.54416885 22.92395462 76.55074005 23.82837799 76.55751038 24.76020813 C76.57724108 27.75721316 76.58890645 30.75416805 76.59887695 33.7512207 C76.60295248 34.77554514 76.60702801 35.79986958 76.61122704 36.85523415 C76.63208834 42.27848738 76.64638894 47.70171532 76.65576172 53.125 C76.66681691 58.7192309 76.70120659 64.31306303 76.74093342 69.90715313 C76.76711544 74.21467311 76.77545506 78.52209838 76.7790432 82.82969093 C76.78390624 84.89130148 76.79551214 86.95290788 76.81408119 89.01444054 C76.83850254 91.90577882 76.83750185 94.79608955 76.83056641 97.6875 C76.84337646 98.53299408 76.85618652 99.37848816 76.86938477 100.24960327 C76.81927362 106.00555318 75.58603748 110.36403486 72.3605957 115.17700195 C67.56754723 119.73624319 63.99804818 120.30305338 57.52172852 120.35400391 C56.8302774 120.3605751 56.13882629 120.3671463 55.42642212 120.37391663 C53.13885382 120.39362093 50.85135113 120.40530664 48.5637207 120.4152832 C47.78086449 120.41935873 46.99800827 120.42343426 46.19142914 120.42763329 C42.04664881 120.44848323 37.90190148 120.46278877 33.75708008 120.47216797 C29.48547833 120.48322168 25.21439905 120.51761221 20.94298172 120.55733967 C17.65032004 120.58354222 14.35778209 120.59186307 11.06502533 120.59544945 C9.49101997 120.60030715 7.91701984 120.61189786 6.34311676 120.63048744 C4.13400939 120.65495474 1.92624366 120.6539008 -0.28295898 120.64697266 C-2.16467804 120.65577202 -2.16467804 120.65577202 -4.08441162 120.66474915 C-9.75392164 119.88688887 -13.45387537 117.7057103 -17.0144043 113.11450195 C-19.96274291 107.78481293 -19.92139508 103.24613666 -20.0144043 97.30200195 C-20.05178711 96.40352539 -20.08916992 95.50504883 -20.12768555 94.5793457 C-20.18901981 89.96564634 -20.15980433 87.86622742 -17.3034668 84.08325195 C-14.6394043 82.17700195 -14.6394043 82.17700195 -11.6394043 81.55200195 C-8.6394043 82.17700195 -8.6394043 82.17700195 -3.6394043 87.17700195 C-3.6394043 92.78700195 -3.6394043 98.39700195 -3.6394043 104.17700195 C17.4805957 104.17700195 38.6005957 104.17700195 60.3605957 104.17700195 C60.3605957 75.13700195 60.3605957 46.09700195 60.3605957 16.17700195 C39.2405957 16.17700195 18.1205957 16.17700195 -3.6394043 16.17700195 C-3.44179569 29.77454907 -3.44179569 29.77454907 -3.18896484 43.37109375 C-3.17435598 45.08112019 -3.16161625 46.79116406 -3.15112305 48.5012207 C-3.12554321 49.38249634 -3.09996338 50.26377197 -3.0736084 51.17175293 C-3.07041782 55.67110507 -3.16998155 57.56279528 -5.98242188 61.24267578 C-8.6394043 63.17700195 -8.6394043 63.17700195 -11.6394043 63.80200195 C-15.80573561 62.93401626 -17.06246709 61.56182355 -19.6394043 58.17700195 C-20.36544867 54.82453599 -20.31687968 51.5456318 -20.26831055 48.1262207 C-20.2707225 47.15344681 -20.27313446 46.18067291 -20.27561951 45.17842102 C-20.27464159 43.12330038 -20.26126122 41.06815322 -20.23632812 39.01318359 C-20.20213087 35.88522594 -20.21564498 32.76011279 -20.23510742 29.63208008 C-20.22820523 27.63011503 -20.21852949 25.62815724 -20.20581055 23.6262207 C-20.21077042 22.69887619 -20.21573029 21.77153168 -20.22084045 20.81608582 C-20.11414213 14.85879113 -19.14695669 10.10234023 -15.6394043 5.17700195 C-10.40620373 1.0118015 -6.57650399 0.05338315 0 0 Z " fill="#000000" transform="translate(227.639404296875,194.822998046875)"/>
</svg>
